o Arrow
v 0.1 0 -0.85
v 0.5 0 -0.45
v 0.75 0 -0.45
v 1.55 0 0.35
v 1.8 0 0.35
v 1.8 0 0.075
v 0.05 0 -1.675
v -0.05 0 -1.675
v -1.8 0 0.075
v -1.8 0 0.35
v -1.55 0 0.35
v -0.75 0 -0.45
v -0.5 0 -0.45
v -0.1 0 -0.85
v -0.3 0 0.65
v -0.3 0 1.55
v -0.05 0 1.8
v 0.05 0 1.8
v 0.3 0 1.55
v 0.3 0 0.65
v 0.05 0 0.4
v -0.05 0 0.4
v 0.3 0 0.525
v 0.3 0 -0.5125
v 0.05 0 -0.7625
v -0.05 0 -0.7625
v -0.3 0 -0.5125
v -0.3 0 0.525
v -0.075 0 0.3
v 0.075 0 0.3
vt 0 0
vn 0 1 0
g Arrow
f 1/1/1 2/1/1 3/1/1 4/1/1 4/1/1 5/1/1 6/1/1 7/1/1 8/1/1 9/1/1 10/1/1 11/1/1 12/1/1 13/1/1 14/1/1
f 15/1/1 16/1/1 17/1/1 18/1/1 19/1/1 20/1/1 21/1/1 22/1/1
f 23/1/1 24/1/1 25/1/1 26/1/1 27/1/1 28/1/1 29/1/1 30/1/1
#h 
